<?xml version="1.0" standalone="no"?>
<!DOCTYPE svg PUBLIC "-//W3C//DTD SVG 20010904//EN"
 "http://www.w3.org/TR/2001/REC-SVG-20010904/DTD/svg10.dtd">
<svg version="1.0" xmlns="http://www.w3.org/2000/svg"
 width="650.000000pt" height="650.000000pt" viewBox="0 0 650.000000 650.000000"
 preserveAspectRatio="xMidYMid meet">
<metadata>
Created by potrace 1.14, written by Peter Selinger 2001-2017
</metadata>
<g transform="translate(0.000000,650.000000) scale(0.100000,-0.100000)"
fill="#000000" stroke="none">
<path d="M3257 6053 c-4 -3 -33 -7 -64 -9 -82 -4 -128 -10 -203 -29 -11 -3
-30 -7 -42 -10 -21 -4 -48 -14 -103 -35 -22 -8 -133 -63 -167 -82 -50 -29
-187 -140 -239 -194 -92 -98 -183 -233 -218 -328 l-10 -24 95 34 c176 63 444
121 654 141 152 15 633 6 700 -12 8 -2 35 -7 60 -10 130 -17 350 -71 485 -120
55 -20 108 -39 118 -42 15 -5 13 3 -11 53 -39 83 -77 145 -128 212 -58 75
-194 212 -210 212 -7 0 -14 4 -16 9 -7 20 -298 181 -298 166 0 -3 -12 0 -27 6
-16 6 -36 13 -45 15 -10 2 -28 7 -40 10 -13 3 -30 7 -38 9 -8 2 -15 4 -15 5 0
3 -59 8 -142 13 -39 3 -75 7 -81 11 -5 3 -12 3 -15 -1z"/>
<path d="M2203 3459 c-13 -5 -23 -6 -23 -2 0 3 -7 0 -15 -7 -8 -7 -15 -9 -15
-5 0 4 -7 2 -15 -5 -8 -6 -19 -9 -24 -6 -5 4 -12 2 -15 -3 -3 -4 -20 -12 -38
-16 -36 -8 -45 -11 -53 -15 -3 -1 -9 -4 -15 -5 -5 -1 -13 -4 -17 -5 -5 -1 -11
-2 -15 -1 -5 0 -8 -4 -8 -9 0 -5 -3 -9 -7 -8 -5 0 -15 -1 -23 -4 -8 -4 -24 -9
-35 -14 -11 -4 -22 -8 -25 -9 -3 0 -30 -12 -60 -25 -30 -14 -58 -24 -62 -22
-5 1 -8 -2 -8 -7 0 -8 -51 -33 -67 -33 -4 0 -14 -5 -21 -10 -7 -6 -32 -21 -55
-33 -75 -39 -142 -77 -158 -91 -8 -8 -18 -14 -22 -14 -10 0 -171 -116 -277
-199 -155 -122 -343 -320 -513 -541 -23 -30 -113 -165 -120 -180 -4 -8 -17
-31 -28 -50 -38 -62 -138 -246 -139 -255 -1 -2 -7 -20 -16 -40 -8 -19 -13 -36
-12 -37 1 -2 -5 -14 -12 -28 -8 -14 -15 -27 -15 -30 -1 -3 -7 -18 -14 -35 -7
-16 -14 -38 -17 -49 -2 -10 -8 -24 -15 -32 -6 -8 -8 -14 -4 -14 4 0 2 -7 -5
-15 -7 -8 -9 -15 -5 -15 4 0 2 -7 -5 -15 -7 -8 -9 -15 -5 -15 4 0 1 -7 -6 -17
-8 -9 -13 -18 -11 -20 1 -1 2 -4 1 -5 0 -2 -2 -11 -5 -20 -2 -10 -6 -26 -8
-35 -3 -10 -5 -18 -6 -18 -1 0 -3 -7 -5 -15 -2 -8 -6 -25 -9 -37 -15 -58 -17
-69 -21 -88 -2 -11 -6 -32 -9 -47 -3 -16 -8 -39 -11 -53 -3 -14 -7 -35 -10
-47 -7 -36 -16 -110 -20 -153 -1 -22 -4 -40 -5 -40 -4 0 -10 -149 -12 -298 -2
-118 0 -141 13 -151 12 -8 80 -11 235 -9 221 2 258 5 304 17 14 4 41 9 60 11
19 3 49 7 65 10 35 7 80 14 115 19 14 2 25 5 25 6 0 2 12 4 70 13 11 2 26 6
33 11 6 4 16 4 22 1 5 -3 16 -3 22 2 14 8 30 12 68 18 14 1 25 4 25 5 0 2 33
10 65 15 30 5 50 10 70 18 8 3 29 8 45 11 27 4 64 13 90 20 6 2 23 8 39 15 16
6 31 9 34 6 3 -2 11 0 19 7 7 6 16 8 19 5 3 -3 21 1 40 9 19 8 34 11 34 8 0
-4 7 -1 15 6 8 7 15 9 15 5 0 -4 7 -2 15 5 9 7 18 10 21 7 3 -3 26 3 50 13 24
11 44 17 44 13 0 -3 7 0 15 7 8 7 15 9 15 5 0 -4 7 -2 15 5 8 7 15 9 15 5 0
-4 7 -2 15 5 8 7 15 10 15 6 0 -4 14 0 30 9 17 9 30 13 30 11 0 -3 20 3 45 14
25 11 45 17 45 13 0 -3 7 0 15 7 8 7 15 10 15 6 0 -4 19 3 43 15 23 12 49 23
57 24 8 0 29 7 45 14 69 31 90 39 96 38 3 -1 13 4 22 12 10 7 17 11 17 7 0 -3
20 6 45 20 25 13 45 22 45 19 0 -3 20 6 45 20 25 13 47 25 50 24 18 0 385 189
457 237 21 13 40 24 43 24 4 0 26 14 50 30 24 17 46 30 48 30 7 0 254 167 267
180 3 3 27 21 53 40 152 111 389 322 508 453 132 144 248 282 289 343 8 12 49
73 91 136 42 62 87 133 100 157 13 24 33 60 44 80 11 20 28 49 38 64 9 15 15
27 12 27 -2 0 15 38 40 85 24 47 42 85 39 85 -2 0 1 10 8 23 7 12 13 24 13 27
1 3 7 19 14 35 7 17 14 37 16 45 2 8 4 16 5 18 3 2 3 2 15 47 4 17 10 34 13
40 19 32 -8 70 -56 80 -9 2 -30 9 -47 16 -16 7 -33 13 -37 14 -5 2 -10 4 -13
5 -3 1 -9 3 -14 4 -5 0 -13 4 -17 9 -4 4 -17 7 -29 7 -12 0 -25 3 -29 7 -3 4
-14 8 -22 9 -9 1 -23 6 -32 10 -37 16 -48 10 -131 -65 -106 -95 -145 -125
-241 -183 -78 -46 -232 -117 -272 -124 -5 -1 -9 -2 -10 -4 -2 -1 -10 -3 -18
-5 -8 -2 -25 -6 -37 -9 -13 -3 -33 -9 -45 -12 -13 -3 -30 -7 -38 -9 -8 -2 -15
-4 -15 -5 0 -2 -25 -6 -100 -15 -70 -8 -258 -13 -270 -6 -5 3 -28 6 -50 8 -45
3 -100 10 -100 13 0 1 -12 4 -65 14 -14 2 -25 5 -25 6 0 1 -8 3 -17 6 -10 2
-26 6 -35 8 -10 3 -18 5 -18 6 0 1 -7 3 -15 5 -8 2 -28 9 -45 16 -16 7 -32 13
-35 14 -3 0 -25 10 -50 22 -25 11 -52 23 -60 27 -81 35 -249 158 -332 242 -76
77 -86 84 -115 73z"/>
<path d="M4855 3211 c-2 -5 -18 -46 -35 -92 -17 -46 -38 -99 -46 -118 -9 -18
-17 -39 -19 -45 -7 -35 -115 -255 -159 -324 -14 -23 -26 -44 -26 -47 0 -7 -73
-122 -123 -195 -47 -68 -174 -236 -236 -313 -70 -86 -331 -352 -431 -439 -228
-199 -565 -434 -833 -581 -129 -71 -418 -212 -445 -217 -4 -1 -18 -8 -32 -15
-41 -22 -159 -74 -182 -80 -5 -2 -10 -4 -13 -5 -3 -1 -8 -3 -12 -4 -20 -4
-109 -41 -120 -49 -7 -5 -13 -6 -13 -2 0 4 -6 3 -13 -3 -7 -6 -25 -13 -40 -16
-15 -2 -32 -8 -39 -13 -7 -4 -17 -8 -23 -9 -5 -1 -63 -20 -127 -42 -65 -23
-118 -39 -118 -36 0 2 -13 -2 -30 -11 -16 -8 -33 -15 -37 -15 -5 1 -9 -5 -11
-12 -2 -11 197 -13 1090 -12 601 1 1098 2 1104 3 6 0 82 112 169 249 87 136
180 280 206 319 27 40 49 75 49 78 0 3 15 27 33 53 54 77 197 301 197 307 0 3
5 11 11 18 11 13 38 54 184 282 49 77 93 142 97 143 5 2 8 8 8 14 0 9 108 180
129 205 6 7 11 15 11 18 0 3 9 18 19 33 10 15 43 65 73 112 30 47 85 131 121
188 37 56 67 106 67 111 0 5 3 11 8 13 10 4 62 85 62 97 0 5 7 14 15 21 27 22
43 65 31 82 -12 16 -263 208 -272 208 -3 0 -20 11 -38 25 -18 14 -38 25 -44
25 -6 0 -17 6 -24 13 -26 24 -138 86 -143 78z"/>
<path d="M5547 2663 c-9 -11 -17 -22 -17 -26 0 -3 -24 -42 -52 -86 -29 -44
-80 -122 -113 -173 -33 -51 -112 -174 -175 -273 -64 -99 -139 -216 -167 -260
-29 -44 -88 -136 -132 -205 -153 -237 -206 -320 -296 -460 -49 -78 -127 -198
-173 -268 -45 -70 -99 -154 -120 -187 -20 -32 -56 -88 -79 -124 -23 -36 -40
-69 -37 -73 2 -3 236 -7 519 -7 387 1 516 4 524 13 5 6 30 70 54 141 112 326
531 1527 552 1583 l24 63 -31 49 c-17 27 -50 71 -74 97 -24 26 -44 50 -44 54
0 3 -33 41 -73 83 -70 76 -73 77 -90 59z"/>
<path d="M6013 2038 c-10 -12 -53 -134 -57 -161 -1 -7 -4 -17 -8 -22 -3 -6
-18 -44 -33 -85 -29 -81 -147 -419 -333 -955 -38 -110 -75 -213 -81 -228 -6
-16 -11 -37 -11 -47 0 -17 19 -18 443 -17 l442 2 2 40 c1 22 5 59 9 82 4 23 3
50 0 60 -4 10 -9 80 -11 156 -2 75 -6 141 -9 146 -3 4 -8 35 -11 67 -4 32 -13
91 -21 129 -9 39 -18 84 -21 100 -2 17 -9 35 -14 41 -5 6 -7 13 -4 16 10 10
-54 215 -117 378 -30 75 -133 288 -147 303 -4 4 -12 2 -18 -5z"/>
</g>
</svg>
